Coordinates
version=1
nRows=15
nColumns=33
inDegrees=yes

Units are S.I. units (second, meters, Newtons, ...)
Angles are in degrees.

endheader
time	ground_thorax_rot_x	ground_thorax_rot_y	ground_thorax_rot_z	ground_thorax_tx	ground_thorax_ty	ground_thorax_tz	clav_prot_r	clav_elev_r	scapula_abduction_r	scapula_elevation_r	scapula_upward_rot_r	scapula_winging_r	shoulder_elv_r	plane_of_elev_r	axial_rot_r	elbow_flexion_r	pro_sup_r	wrist_flex_r	wrist_dev_r	clav_prot_l	clav_elev_l	scapula_abduction_l	scapula_elevation_l	scapula_upward_rot_l	scapula_winging_l	shoulder_elv_l	plane_of_elev_l	axial_rot_l	elbow_flexion_l	pro_sup_l	wrist_flex_l	wrist_dev_l	
1.5800	28.405921	42.418635	33.648564	-0.116299	1.011197	0.023751	-6.534613	44.975085	-36.827119	39.218115	39.829689	3.057552	16.317839	-90.000000	8.146536	65.269989	23.033177	37.420322	2.423992	28.162674	-31.917864	-45.000000	14.266927	-17.921274	6.064459	2.507376	-62.104299	-7.633996	50.048003	13.131266	3.422633	-25.000000	
1.5900	28.430677	42.538210	33.590854	-0.116502	1.011218	0.023797	-6.724619	44.950471	-36.948538	39.079386	39.943837	2.921263	16.265367	-90.000000	8.199135	65.207243	23.017156	37.391420	2.202680	28.144114	-31.982913	-45.000000	14.424114	-17.682630	5.964393	2.125422	-62.110905	-7.515593	49.806560	12.925813	3.418268	-25.000000	
1.6000	28.452850	42.663101	33.532850	-0.116713	1.011294	0.023854	-6.924600	44.922031	-37.065795	38.930633	40.062036	2.776007	16.216602	-90.000000	8.248039	65.132257	22.995338	37.370297	1.942606	28.124820	-32.055515	-45.000000	14.594779	-17.427726	5.854716	1.718881	-62.112098	-7.372944	49.547597	12.703540	3.391225	-25.000000	
1.6100	28.449019	42.732076	33.514208	-0.116930	1.011301	0.023862	-7.068558	44.879185	-37.109680	38.809853	40.111990	2.672446	16.172537	-90.000000	8.292196	65.112108	22.972348	37.396520	1.731242	28.119378	-32.114502	-45.000000	14.700921	-17.300195	5.778902	1.433526	-62.086465	-7.264761	49.393931	12.562627	3.323802	-25.000000	
1.6200	28.432159	42.768115	33.511835	-0.117157	1.011329	0.023836	-7.186788	44.816524	-37.094266	38.693330	40.110797	2.588116	16.133410	-90.000000	8.331406	65.096414	22.937690	37.476356	1.469330	28.122887	-32.178761	-45.000000	14.786430	-17.234997	5.708528	1.179089	-62.036745	-7.130983	49.288354	12.445519	3.174183	-25.000000	
1.6300	28.403649	42.778112	33.524981	-0.117395	1.011379	0.023780	-7.281680	44.739523	-37.029184	38.582427	40.069583	2.520246	16.100785	-90.000000	8.364105	65.085461	22.894401	37.599128	1.170726	28.133298	-32.246034	-45.000000	14.854148	-17.219991	5.643683	0.954220	-61.965798	-6.979331	49.227777	12.350245	2.959712	-25.000000	
1.6400	28.370253	42.776258	33.544592	-0.117633	1.011464	0.023702	-7.363753	44.654751	-36.935460	38.474229	40.007240	2.461008	16.075205	-90.000000	8.389758	65.065988	22.845309	37.748876	0.835955	28.146760	-32.316780	-45.000000	14.917354	-17.223846	5.578611	0.735606	-61.880053	-6.809465	49.194228	12.261114	2.698670	-25.000000	
1.6500	28.334439	42.778382	33.570664	-0.117861	1.011561	0.023619	-7.438488	44.578997	-36.845467	38.375067	39.954896	2.404849	16.058450	-90.000000	8.406580	65.048928	22.802160	37.888565	0.530501	28.158386	-32.380791	-45.000000	14.976068	-17.223542	5.519020	0.534365	-61.791093	-6.658138	49.180479	12.182157	2.457094	-25.000000	
1.6600	28.296878	42.781386	33.601222	-0.118068	1.011650	0.023534	-7.504208	44.513859	-36.762465	38.287343	39.913243	2.353547	16.049125	-90.000000	8.415965	65.036421	22.767408	38.016719	0.263304	28.168267	-32.437152	-45.000000	15.028935	-17.220427	5.465907	0.354918	-61.703846	-6.529242	49.185932	12.116004	2.240044	-25.000000	
1.6700	28.255262	42.787505	33.641934	-0.118247	1.011695	0.023459	-7.557285	44.469299	-36.700469	38.219530	39.894900	2.308976	16.047591	-90.000000	8.417537	65.046840	22.751282	38.114277	0.093488	28.175254	-32.476880	-45.000000	15.066069	-17.218495	5.428424	0.224751	-61.626783	-6.455012	49.216974	12.078895	2.090130	-25.000000	
1.6800	28.210720	42.793107	33.688964	-0.118390	1.011696	0.023394	-7.598410	44.441406	-36.655995	38.169314	39.893505	2.271859	16.051941	-90.000000	8.413211	65.072411	22.753277	38.191501	0.002579	28.180393	-32.504308	-45.000000	15.090957	-17.219143	5.402700	0.135146	-61.562628	-6.422537	49.268005	12.066806	1.987939	-25.000000	
1.6900	28.163084	42.796101	33.741617	-0.118498	1.011656	0.023341	-7.628086	44.425721	-36.622857	38.133922	39.901990	2.242332	16.060847	-90.000000	8.404320	65.105319	22.777164	38.266256	-0.027967	28.185123	-32.525487	-45.000000	15.107973	-17.225249	5.383709	0.075692	-61.515999	-6.416878	49.337130	12.078288	1.904443	-25.000000	
1.7000	28.114971	42.790462	33.791711	-0.118573	1.011600	0.023298	-7.649897	44.409126	-36.583790	38.103482	39.902133	2.219269	16.070766	-90.000000	8.394423	65.123438	22.816285	38.370851	-0.068383	28.191912	-32.554463	-45.000000	15.130371	-17.235921	5.358342	0.013776	-61.487352	-6.393430	49.409925	12.096332	1.776459	-25.000000	
1.7100	28.058188	42.771823	33.848188	-0.118625	1.011537	0.023261	-7.662147	44.384831	-36.526369	38.074990	39.882006	2.204196	16.082137	-90.000000	8.383094	65.113598	22.896836	38.560708	-0.137043	28.204749	-32.605478	-45.000000	15.167085	-17.261221	5.314916	-0.069489	-61.491874	-6.327132	49.503366	12.132464	1.526924	-25.000000	
1.7200	27.996376	42.743128	33.907593	-0.118652	1.011463	0.023228	-7.665441	44.354731	-36.454953	38.049317	39.844851	2.196869	16.093259	-90.000000	8.372030	65.080774	23.009723	38.815681	-0.226682	28.222352	-32.673899	-45.000000	15.215136	-17.298012	5.257246	-0.168409	-61.524426	-6.227448	49.612062	12.182897	1.182791	-25.000000	
